<svg width="2574" height="811" viewBox="0 0 2574 811" fill="none" xmlns="http://www.w3.org/2000/svg">
<path d="M1 290.559C63.2805 260.472 344.813 -0.835106 1252.7 270.797C2160.58 542.429 2429.97 448.321 2573 188.612" stroke="url(#paint0_linear_1_1220)" stroke-width="1.22768" stroke-miterlimit="10"/>
<path d="M2.7312 280.48C62.0407 251.826 348.325 5.85262 1248.14 280.705C2147.96 555.558 2428.21 427.006 2564.43 179.671" stroke="url(#paint1_linear_1_1220)" stroke-width="1.22768" stroke-miterlimit="10"/>
<path d="M4.46216 270.417C60.8006 243.196 351.848 12.5437 1243.6 290.641C2135.35 568.737 2426.46 405.718 2555.87 170.744" stroke="url(#paint2_linear_1_1220)" stroke-width="1.22768" stroke-miterlimit="10"/>
<path d="M6.19336 260.343C59.5731 234.555 355.359 19.2358 1239.06 300.565C2122.76 581.895 2424.72 384.419 2547.32 161.819" stroke="url(#paint3_linear_1_1220)" stroke-width="1.22768" stroke-miterlimit="10"/>
<path d="M7.92407 250.265C58.3328 225.909 358.882 25.912 1234.52 310.474C2110.15 595.036 2422.98 363.105 2538.76 152.865" stroke="url(#paint4_linear_1_1220)" stroke-width="1.22768" stroke-miterlimit="10"/>
<path d="M9.64282 240.202C57.0928 217.279 362.394 32.6153 1229.95 320.41C2097.51 608.204 2421.21 341.817 2530.18 143.951" stroke="url(#paint5_linear_1_1220)" stroke-width="1.22768" stroke-miterlimit="10"/>
<path d="M11.3743 230.124C55.8533 208.633 365.917 39.3031 1225.41 330.33C2084.9 621.356 2419.47 320.514 2521.62 135.01" stroke="url(#paint6_linear_1_1220)" stroke-width="1.22768" stroke-miterlimit="10"/>
<path d="M13.105 220.05C54.6253 199.992 369.441 45.9829 1220.86 340.242C2072.29 634.501 2417.72 299.203 2513.06 126.072" stroke="url(#paint7_linear_1_1220)" stroke-width="1.22768" stroke-miterlimit="10"/>
<path d="M14.8362 209.971C53.3855 191.346 372.952 52.6709 1216.32 350.162C2059.69 647.654 2415.97 277.9 2504.52 117.13" stroke="url(#paint8_linear_1_1220)" stroke-width="1.22768" stroke-miterlimit="10"/>
<path d="M16.5671 199.908C52.1577 182.716 376.475 59.3621 1211.77 360.098C2047.06 660.834 2414.21 256.612 2495.95 108.216" stroke="url(#paint9_linear_1_1220)" stroke-width="1.22768" stroke-miterlimit="10"/>
<path d="M18.2979 189.832C50.9174 174.073 379.998 66.0522 1207.22 370.009C2034.45 673.965 2412.47 235.3 2487.39 99.2646" stroke="url(#paint10_linear_1_1220)" stroke-width="1.22768" stroke-miterlimit="10"/>
<path d="M20.0171 179.756C49.6657 165.429 383.498 72.7299 1202.67 379.931C2021.84 687.131 2410.71 213.998 2478.82 90.3367" stroke="url(#paint11_linear_1_1220)" stroke-width="1.22768" stroke-miterlimit="10"/>
<path d="M21.748 169.691C48.4379 156.797 387.021 79.4314 1198.13 389.865C2009.23 700.298 2408.97 192.709 2470.27 81.4087" stroke="url(#paint12_linear_1_1220)" stroke-width="1.22768" stroke-miterlimit="10"/>
<path d="M23.4792 159.613C47.1981 148.151 390.545 86.1072 1193.57 399.773C1996.6 713.439 2407.21 171.406 2461.7 72.467" stroke="url(#paint13_linear_1_1220)" stroke-width="1.22768" stroke-miterlimit="10"/>
<path d="M25.21 149.538C45.9701 139.509 394.068 92.7984 1189.03 409.697C1983.99 726.595 2405.46 150.106 2453.14 63.5288" stroke="url(#paint14_linear_1_1220)" stroke-width="1.22768" stroke-miterlimit="10"/>
<path d="M26.9414 139.472C44.7306 130.875 397.58 99.4864 1184.49 419.629C1971.4 739.771 2403.71 128.815 2444.58 54.6111" stroke="url(#paint15_linear_1_1220)" stroke-width="1.22768" stroke-miterlimit="10"/>
<path d="M28.6721 129.397C43.5026 122.234 401.103 106.178 1179.95 429.553C1958.79 752.928 2401.96 107.504 2436.01 45.6733" stroke="url(#paint16_linear_1_1220)" stroke-width="1.22768" stroke-miterlimit="10"/>
<path d="M30.3904 119.322C42.2498 113.592 404.613 112.869 1175.38 439.465C1946.14 766.06 2400.22 86.2046 2427.46 36.7351" stroke="url(#paint17_linear_1_1220)" stroke-width="1.22768" stroke-miterlimit="10"/>
<path d="M32.1221 109.246C41.0228 104.948 408.125 119.547 1170.84 449.387C1933.55 779.226 2398.46 64.9033 2418.89 27.8071" stroke="url(#paint18_linear_1_1220)" stroke-width="1.22768" stroke-miterlimit="10"/>
<path d="M33.8523 99.1796C39.782 96.3142 411.648 126.247 1166.29 459.319C1920.94 792.391 2396.72 43.6004 2410.33 18.8657" stroke="url(#paint19_linear_1_1220)" stroke-width="1.22768" stroke-miterlimit="10"/>
<path d="M35.5842 89.107C38.5552 87.6743 415.172 132.929 1161.75 469.233C1908.33 805.538 2394.96 22.3031 2401.78 9.94165" stroke="url(#paint20_linear_1_1220)" stroke-width="1.22768" stroke-miterlimit="10"/>
<path d="M37.3145 79.0286C37.3145 79.0286 418.695 139.616 1157.2 479.153C1895.7 818.69 2393.2 1 2393.2 1" stroke="#FCEE21" stroke-width="1.22768" stroke-miterlimit="10"/>
<path d="M41.1577 97.9954C42.6064 96.4561 432.801 127.04 1158.39 463.392C1883.97 799.744 2372.29 44.1095 2392.14 38.7102" stroke="#FBE421" stroke-width="1.22768" stroke-miterlimit="10"/>
<path d="M44.9998 116.977C47.8971 113.899 446.919 114.491 1159.58 447.658C1872.24 780.825 2351.38 87.2223 2391.07 76.4238" stroke="#FBDA21" stroke-width="1.22768" stroke-miterlimit="10"/>
<path d="M48.8435 135.947C53.1895 131.33 461.039 101.93 1160.76 431.9C1860.48 761.87 2330.46 130.311 2390 114.137" stroke="#FAD021" stroke-width="1.22768" stroke-miterlimit="10"/>
<path d="M52.6855 154.912C58.4679 148.755 475.157 89.3511 1161.95 416.148C1848.74 742.945 2309.53 173.418 2388.92 151.845" stroke="#F9C622" stroke-width="1.22768" stroke-miterlimit="10"/>
<path d="M56.5276 173.883C63.7587 166.187 489.274 76.7913 1163.14 400.391C1837 723.991 2288.61 216.521 2387.85 189.548" stroke="#F8BC22" stroke-width="1.22768" stroke-miterlimit="10"/>
<path d="M60.3833 192.852C69.063 183.616 503.394 64.2168 1164.33 384.643C1825.27 705.07 2267.7 259.632 2386.79 227.26" stroke="#F8B222" stroke-width="1.22768" stroke-miterlimit="10"/>
<path d="M64.2253 211.817C74.3537 201.042 517.511 51.651 1165.52 368.892C1813.53 686.134 2246.78 302.728 2385.72 264.969" stroke="#F7A822" stroke-width="1.22768" stroke-miterlimit="10"/>
<path d="M68.0686 230.787C79.6457 218.473 531.63 39.0778 1166.71 353.134C1801.79 667.191 2225.86 345.829 2384.64 302.67" stroke="#F69E22" stroke-width="1.22768" stroke-miterlimit="10"/>
<path d="M71.9106 249.766C84.9364 235.913 545.748 26.5262 1167.9 337.386C1790.06 648.245 2204.94 388.939 2383.57 340.381" stroke="#F69422" stroke-width="1.22768" stroke-miterlimit="10"/>
<path d="M75.7539 268.735C90.2283 253.343 559.867 13.9639 1169.08 321.638C1778.3 629.313 2184.02 432.051 2382.49 378.094" stroke="#F58A22" stroke-width="1.22768" stroke-miterlimit="10"/>
<path d="M79.5964 287.705C95.5195 270.773 573.985 1.39073 1170.27 305.88C1766.56 610.369 2163.1 475.139 2381.42 415.795" stroke="#F48023" stroke-width="1.22768" stroke-miterlimit="10"/>
<path d="M83.4517 306.672C100.811 288.201 588.104 -11.1736 1171.47 290.131C1754.85 591.435 2142.19 518.249 2380.36 453.517" stroke="#F37623" stroke-width="1.22768" stroke-miterlimit="10"/>
<path d="M87.2942 325.641C106.102 305.631 602.222 -23.7471 1172.65 274.372C1743.09 572.491 2121.26 561.349 2379.28 491.218" stroke="#F36C23" stroke-width="1.22768" stroke-miterlimit="10"/>
<path d="M91.1362 344.613C111.393 323.063 616.34 -36.3065 1173.84 258.628C1731.35 553.562 2100.35 604.464 2378.22 528.933" stroke="#F26223" stroke-width="1.22768" stroke-miterlimit="10"/>
<path d="M94.9795 363.578C116.685 340.489 630.459 -48.8731 1175.04 242.864C1719.61 534.601 2079.43 647.547 2377.15 566.63" stroke="#F15823" stroke-width="1.22768" stroke-miterlimit="10"/>
<path d="M98.8228 382.547C121.977 357.919 644.578 -61.4466 1176.21 227.117C1707.85 515.681 2058.5 690.66 2376.07 604.343" stroke="#F14E23" stroke-width="1.22768" stroke-miterlimit="10"/>
<path d="M102.665 401.528C127.268 375.361 658.683 -73.9966 1177.4 211.37C1696.13 496.737 2037.58 733.772 2375 642.055" stroke="#F04423" stroke-width="1.22768" stroke-miterlimit="10"/>
<path d="M106.521 420.495C132.572 392.788 672.815 -86.5729 1178.61 195.621C1684.4 477.815 2016.69 776.881 2373.93 679.765" stroke="#EF3A24" stroke-width="1.22768" stroke-miterlimit="10"/>
<path d="M110.363 439.464C137.85 410.218 686.932 -99.1347 1179.79 179.862C1672.64 458.859 1995.76 819.969 2372.85 717.466" stroke="#EE3024" stroke-width="1.22768" stroke-miterlimit="10"/>
<path d="M114.205 458.433C143.141 427.648 701.05 -111.697 1180.98 164.115C1660.9 439.927 1974.83 863.081 2371.78 755.179" stroke="#EE2624" stroke-width="1.22768" stroke-miterlimit="10"/>
<path d="M118.047 477.4C148.432 445.076 715.168 -124.273 1182.17 148.354C1649.17 420.981 1953.91 906.179 2370.71 792.889" stroke="#ED1C24" stroke-width="1.22768" stroke-miterlimit="10"/>
<defs>
<linearGradient id="paint0_linear_1_1220" x1="117.592" y1="-92.5425" x2="2442.47" y2="617.658" gradientUnits="userSpaceOnUse">
<stop stop-color="#FF9074"/>
<stop offset="1" stop-color="#FFE23A" stop-opacity="0.8"/>
</linearGradient>
<linearGradient id="paint1_linear_1_1220" x1="108.987" y1="-86.9686" x2="2445.56" y2="591.545" gradientUnits="userSpaceOnUse">
<stop stop-color="#FF9470"/>
<stop offset="1" stop-color="#FFE339" stop-opacity="0.8095"/>
</linearGradient>
<linearGradient id="paint2_linear_1_1220" x1="100.836" y1="-81.2312" x2="2447.95" y2="564.888" gradientUnits="userSpaceOnUse">
<stop stop-color="#FF996C"/>
<stop offset="1" stop-color="#FFE338" stop-opacity="0.819"/>
</linearGradient>
<linearGradient id="paint3_linear_1_1220" x1="93.1454" y1="-75.295" x2="2450.11" y2="538.006" gradientUnits="userSpaceOnUse">
<stop stop-color="#FF9D68"/>
<stop offset="1" stop-color="#FFE436" stop-opacity="0.8286"/>
</linearGradient>
<linearGradient id="paint4_linear_1_1220" x1="85.8852" y1="-69.2182" x2="2451.49" y2="511.131" gradientUnits="userSpaceOnUse">
<stop stop-color="#FEA264"/>
<stop offset="1" stop-color="#FEE435" stop-opacity="0.8381"/>
</linearGradient>
<linearGradient id="paint5_linear_1_1220" x1="79.1154" y1="-63.0035" x2="2452.37" y2="483.797" gradientUnits="userSpaceOnUse">
<stop stop-color="#FEA660"/>
<stop offset="1" stop-color="#FEE534" stop-opacity="0.8476"/>
</linearGradient>
<linearGradient id="paint6_linear_1_1220" x1="72.8088" y1="-56.645" x2="2452.97" y2="456.554" gradientUnits="userSpaceOnUse">
<stop stop-color="#FEAB5C"/>
<stop offset="1" stop-color="#FEE533" stop-opacity="0.8571"/>
</linearGradient>
<linearGradient id="paint7_linear_1_1220" x1="66.9965" y1="-50.2028" x2="2452.8" y2="428.879" gradientUnits="userSpaceOnUse">
<stop stop-color="#FEAF58"/>
<stop offset="1" stop-color="#FEE632" stop-opacity="0.8667"/>
</linearGradient>
<linearGradient id="paint8_linear_1_1220" x1="61.6766" y1="-43.6622" x2="2452.34" y2="401.082" gradientUnits="userSpaceOnUse">
<stop stop-color="#FEB454"/>
<stop offset="1" stop-color="#FEE730" stop-opacity="0.8762"/>
</linearGradient>
<linearGradient id="paint9_linear_1_1220" x1="56.3505" y1="-34.2929" x2="2450.58" y2="376.19" gradientUnits="userSpaceOnUse">
<stop stop-color="#FEB850"/>
<stop offset="1" stop-color="#FEE72F" stop-opacity="0.8857"/>
</linearGradient>
<linearGradient id="paint10_linear_1_1220" x1="48.8765" y1="-7.41134" x2="2445.63" y2="368.424" gradientUnits="userSpaceOnUse">
<stop stop-color="#FEBD4C"/>
<stop offset="1" stop-color="#FEE82E" stop-opacity="0.8952"/>
</linearGradient>
<linearGradient id="paint11_linear_1_1220" x1="42.4714" y1="19.5372" x2="2440.93" y2="360.891" gradientUnits="userSpaceOnUse">
<stop stop-color="#FDC149"/>
<stop offset="1" stop-color="#FDE82D" stop-opacity="0.9048"/>
</linearGradient>
<linearGradient id="paint12_linear_1_1220" x1="37.1634" y1="46.4632" x2="2436.04" y2="353.039" gradientUnits="userSpaceOnUse">
<stop stop-color="#FDC645"/>
<stop offset="1" stop-color="#FDE92C" stop-opacity="0.9143"/>
</linearGradient>
<linearGradient id="paint13_linear_1_1220" x1="32.9218" y1="73.363" x2="2431.4" y2="345.416" gradientUnits="userSpaceOnUse">
<stop stop-color="#FDCA41"/>
<stop offset="1" stop-color="#FDE92B" stop-opacity="0.9238"/>
</linearGradient>
<linearGradient id="paint14_linear_1_1220" x1="29.775" y1="100.15" x2="2426.55" y2="337.475" gradientUnits="userSpaceOnUse">
<stop stop-color="#FDCF3D"/>
<stop offset="1" stop-color="#FDEA29" stop-opacity="0.9333"/>
</linearGradient>
<linearGradient id="paint15_linear_1_1220" x1="27.7055" y1="126.818" x2="2421.97" y2="329.507" gradientUnits="userSpaceOnUse">
<stop stop-color="#FDD339"/>
<stop offset="1" stop-color="#FDEB28" stop-opacity="0.9429"/>
</linearGradient>
<linearGradient id="paint16_linear_1_1220" x1="26.6707" y1="153.29" x2="2417.14" y2="321.731" gradientUnits="userSpaceOnUse">
<stop stop-color="#FDD835"/>
<stop offset="1" stop-color="#FDEB27" stop-opacity="0.9524"/>
</linearGradient>
<linearGradient id="paint17_linear_1_1220" x1="26.7111" y1="179.533" x2="2412.35" y2="313.657" gradientUnits="userSpaceOnUse">
<stop stop-color="#FDDC31"/>
<stop offset="1" stop-color="#FDEC26" stop-opacity="0.9619"/>
</linearGradient>
<linearGradient id="paint18_linear_1_1220" x1="27.7688" y1="205.538" x2="2407.79" y2="305.817" gradientUnits="userSpaceOnUse">
<stop stop-color="#FCE12D"/>
<stop offset="1" stop-color="#FCEC25" stop-opacity="0.9714"/>
</linearGradient>
<linearGradient id="paint19_linear_1_1220" x1="29.868" y1="231.207" x2="2403.03" y2="297.657" gradientUnits="userSpaceOnUse">
<stop stop-color="#FCE529"/>
<stop offset="1" stop-color="#FCED23" stop-opacity="0.981"/>
</linearGradient>
<linearGradient id="paint20_linear_1_1220" x1="32.95" y1="256.568" x2="2398.49" y2="289.743" gradientUnits="userSpaceOnUse">
<stop stop-color="#FCEA25"/>
<stop offset="1" stop-color="#FCED22" stop-opacity="0.9905"/>
</linearGradient>
</defs>
</svg>
